<svg width="1024" height="1024" xmlns="http://www.w3.org/2000/svg"><g class="fa-group"><path d="M216.72 286.709a64 64 0 1064 64 64.06 64.06 0 00-64-64zm88 80h48v-32h-48zm294.4-106.8l19.2 25.6 48-36-19.2-25.6zm129.6-149.2a64 64 0 1064 64 64.06 64.06 0 00-64-64z" fill="#666"/><path d="M728.72 430.709a63.84 63.84 0 00-38.3 13l-96-57.6a109.91 109.91 0 006.3-35.5 111.94 111.94 0 00-112-112 108.64 108.64 0 00-24.4 2.9l-40.8-87.4a63.84 63.84 0 10-46.8 20.6c1.1 0 2.1-.3 3.2-.3l41 87.8c-26.7 20.4-44.2 52.3-44.2 88.5a111.71 111.71 0 00193.2 76.7l95.8 57.5a63.87 63.87 0 1063-54.2zm-240-32a48 48 0 1148-48 48 48 0 01-48 48z" fill="#2eb9ff"/></g><path fill="#666" d="M591.973 977.126h-216l45.615-459h124.385z"/><path d="M411.132 623.342l137.433-79.348 9.7 96.789-157.928 91.18zM389.867 837.323l177.807-102.658 9.7 96.79-198.302 114.49z" fill="#2eb9ff"/></svg>